<svg width="170" height="54" viewBox="0 0 170 54" fill="none" xmlns="http://www.w3.org/2000/svg">
<g clip-path="url(#clip0_184_16496)">
<path d="M68.4701 34.7822C68.2207 34.551 67.9236 34.3775 67.584 34.2619C67.2445 34.1462 66.9102 34.0884 66.5812 34.0884C66.2894 34.0884 65.9976 34.1252 65.7164 34.204C65.4299 34.2829 65.1805 34.3933 64.9577 34.551C64.7349 34.7034 64.5545 34.9031 64.4165 35.1397C64.2786 35.3762 64.2096 35.6601 64.2096 35.986C64.2096 36.2909 64.2574 36.5432 64.3582 36.7429C64.4537 36.9479 64.581 37.1161 64.7402 37.2528C64.894 37.3947 65.0691 37.5051 65.2654 37.5892C65.4617 37.6733 65.6581 37.7469 65.8544 37.81C66.056 37.8783 66.247 37.9414 66.4327 37.9992C66.6131 38.057 66.7776 38.1306 66.9102 38.2147C67.0428 38.2988 67.149 38.3935 67.2285 38.5038C67.3081 38.6142 67.3453 38.7562 67.3453 38.9244C67.3453 39.0926 67.3081 39.245 67.2392 39.3659C67.1649 39.4816 67.0747 39.5814 66.9633 39.6603C66.8518 39.7391 66.7245 39.7969 66.5812 39.8285C66.438 39.86 66.3054 39.881 66.1674 39.881C65.9127 39.881 65.6528 39.818 65.3822 39.6918C65.1169 39.5657 64.9046 39.3922 64.7455 39.1767L63.9178 39.9389C64.1725 40.2437 64.5067 40.4698 64.9099 40.6222C65.3132 40.7747 65.727 40.8535 66.1462 40.8535C66.4645 40.8535 66.7669 40.8115 67.0535 40.7273C67.34 40.6432 67.5893 40.5171 67.8069 40.3489C68.0191 40.1807 68.1889 39.9652 68.3215 39.7076C68.4489 39.45 68.5125 39.1504 68.5125 38.8035C68.5125 38.4881 68.4542 38.2253 68.3321 38.015C68.2154 37.7995 68.0615 37.626 67.8705 37.4893C67.6848 37.3474 67.4779 37.237 67.2551 37.1529C67.0322 37.0688 66.8147 36.9952 66.6078 36.9269C66.4274 36.8743 66.2576 36.8165 66.1037 36.7639C65.9499 36.7114 65.8225 36.6483 65.7111 36.5747C65.5997 36.5011 65.5201 36.4118 65.4617 36.3119C65.4034 36.2068 65.3715 36.0859 65.3715 35.9387C65.3715 35.781 65.4087 35.6443 65.4777 35.5339C65.5466 35.4235 65.6368 35.3289 65.7483 35.2606C65.8597 35.1923 65.9817 35.1397 66.1143 35.1081C66.2523 35.0766 66.3849 35.0608 66.5176 35.0608C66.7457 35.0608 66.9686 35.1134 67.1914 35.2185C67.4142 35.3237 67.5893 35.4551 67.7061 35.6128L68.4595 34.798L68.4701 34.7822ZM71.7543 40.6853H72.9109V35.2553H74.9006V34.2566H69.7647V35.2553H71.7543V40.6853ZM75.2295 40.6853H76.5188L77.1078 39.2135H79.9251L80.5299 40.6853H81.8511L79.055 34.2513H78.0575L75.2348 40.6853H75.2295ZM77.5057 38.2305L78.5244 35.6128L79.5219 38.2305H77.5057ZM83.4109 40.6853H85.7136C86.1328 40.6853 86.5625 40.6222 86.987 40.5013C87.4114 40.3804 87.7988 40.1859 88.1436 39.9231C88.4885 39.6603 88.7644 39.3291 88.9766 38.9244C89.1888 38.5196 89.295 38.036 89.295 37.4683C89.295 36.8638 89.1888 36.3539 88.9766 35.9492C88.7644 35.5392 88.4832 35.208 88.1436 34.961C87.7988 34.7087 87.4167 34.5299 86.987 34.4195C86.5572 34.3092 86.1328 34.2566 85.7136 34.2566H83.4109V40.6906V40.6853ZM84.5676 39.6866V35.2343H85.5279C85.825 35.2343 86.1275 35.2658 86.4246 35.3237C86.7217 35.3867 86.9923 35.4971 87.2363 35.6601C87.4751 35.823 87.6767 36.0543 87.8306 36.3434C87.9844 36.6325 88.0587 37.011 88.0587 37.4683C88.0587 37.9046 87.9791 38.2673 87.8306 38.5512C87.6767 38.835 87.4804 39.061 87.2363 39.2292C86.9976 39.3974 86.727 39.5131 86.4246 39.5814C86.1221 39.6498 85.825 39.6866 85.5279 39.6866H84.5676ZM94.5423 40.6853H95.6989V37.4631H95.7255L98.5746 40.6853H100.198L96.9617 37.2265L99.9966 34.2566H98.4367L95.7255 37.0373H95.6989V34.2566H94.5423V40.6906V40.6853ZM100.877 40.6853H102.172L102.761 39.2135H105.578L106.183 40.6853H107.504L104.708 34.2513H103.711L100.888 40.6853H100.877ZM103.153 38.2305L104.172 35.6128L105.17 38.2305H103.153ZM108.268 40.6853H109.563L110.152 39.2135H112.969L113.574 40.6853H114.895L112.099 34.2513H111.101L108.279 40.6853H108.268ZM110.544 38.2305L111.563 35.6128L112.56 38.2305H110.544ZM116.45 40.6853H117.606V38.0255H118.498C118.842 38.0255 119.166 37.994 119.468 37.9256C119.771 37.8573 120.041 37.7522 120.27 37.5997C120.498 37.4525 120.683 37.2581 120.816 37.0163C120.949 36.7745 121.018 36.4748 121.018 36.1174C121.018 35.7862 120.959 35.5024 120.843 35.2658C120.726 35.0293 120.561 34.8348 120.349 34.6824C120.137 34.5299 119.877 34.4195 119.58 34.3565C119.283 34.2881 118.943 34.2566 118.572 34.2566H116.455V40.6906L116.45 40.6853ZM117.606 37.0583V35.2133H118.45C118.625 35.2133 118.8 35.2238 118.97 35.2448C119.134 35.2658 119.288 35.3132 119.415 35.3762C119.548 35.4446 119.654 35.5339 119.734 35.6548C119.813 35.7705 119.85 35.9282 119.85 36.1121C119.85 36.2961 119.813 36.4643 119.734 36.5852C119.654 36.7061 119.548 36.8007 119.415 36.8691C119.283 36.9427 119.129 36.99 118.954 37.0163C118.784 37.0425 118.604 37.0583 118.413 37.0583H117.606ZM127.024 34.777C126.774 34.5457 126.477 34.3722 126.138 34.2566C125.798 34.141 125.464 34.0831 125.135 34.0831C124.843 34.0831 124.551 34.1199 124.27 34.1988C123.989 34.2776 123.734 34.388 123.511 34.5457C123.289 34.6981 123.108 34.8979 122.97 35.1344C122.832 35.371 122.763 35.6548 122.763 35.9807C122.763 36.2856 122.811 36.5379 122.912 36.7377C123.007 36.9427 123.135 37.1109 123.294 37.2475C123.448 37.3895 123.628 37.4999 123.819 37.584C124.015 37.6681 124.212 37.7417 124.408 37.8047C124.61 37.8731 124.801 37.9361 124.986 37.994C125.167 38.0518 125.331 38.1254 125.464 38.2095C125.602 38.2936 125.708 38.3882 125.782 38.4986C125.862 38.609 125.899 38.7509 125.899 38.9191C125.899 39.0873 125.862 39.2398 125.793 39.3607C125.724 39.4816 125.628 39.5762 125.517 39.655C125.406 39.7339 125.278 39.7917 125.135 39.8232C124.992 39.8548 124.859 39.8758 124.721 39.8758C124.466 39.8758 124.206 39.8127 123.936 39.6866C123.671 39.5604 123.458 39.3869 123.299 39.1714L122.477 39.9336C122.731 40.2385 123.066 40.4645 123.469 40.617C123.872 40.7694 124.286 40.8482 124.705 40.8482C125.024 40.8482 125.326 40.8062 125.612 40.7221C125.899 40.638 126.154 40.5118 126.366 40.3436C126.578 40.1754 126.753 39.9599 126.881 39.7023C127.008 39.4448 127.072 39.1451 127.072 38.7982C127.072 38.4828 127.013 38.22 126.891 38.0097C126.774 37.7942 126.621 37.6208 126.435 37.4841C126.249 37.3422 126.042 37.2318 125.819 37.1477C125.597 37.0636 125.379 36.99 125.172 36.9216C124.992 36.8691 124.822 36.8113 124.668 36.7587C124.514 36.7061 124.387 36.643 124.275 36.5695C124.164 36.4959 124.084 36.4065 124.026 36.3066C123.968 36.2015 123.936 36.0806 123.936 35.9334C123.936 35.7757 123.973 35.6391 124.042 35.5287C124.111 35.4183 124.201 35.3237 124.313 35.2553C124.424 35.187 124.546 35.1344 124.679 35.1029C124.811 35.0714 124.949 35.0556 125.082 35.0556C125.31 35.0556 125.533 35.1081 125.756 35.2133C125.979 35.3184 126.154 35.4498 126.276 35.6075L127.029 34.7928L127.024 34.777ZM130.308 40.68H131.465V35.2501H133.454V34.2513H128.318V35.2501H130.308V40.68ZM133.783 40.68H135.078L135.667 39.2082H138.484L139.089 40.68H140.41L137.614 34.2461H136.617L133.794 40.68H133.783ZM136.059 38.2253L137.078 35.6075L138.076 38.2253H136.059ZM141.965 40.68H144.267C144.692 40.68 145.116 40.617 145.541 40.4961C145.97 40.3752 146.352 40.1807 146.697 39.9178C147.037 39.655 147.318 39.3239 147.53 38.9191C147.743 38.5144 147.849 38.0308 147.849 37.4631C147.849 36.8586 147.743 36.3487 147.53 35.9439C147.318 35.5339 147.037 35.2028 146.697 34.9557C146.352 34.7034 145.97 34.5247 145.541 34.4143C145.116 34.3039 144.686 34.2513 144.267 34.2513H141.965V40.6853V40.68ZM143.121 39.6813V35.229H144.082C144.379 35.229 144.681 35.2606 144.978 35.3184C145.275 35.3815 145.546 35.4919 145.79 35.6548C146.029 35.8178 146.23 36.0491 146.379 36.3382C146.533 36.6273 146.607 37.0057 146.607 37.4631C146.607 37.8993 146.533 38.262 146.379 38.5459C146.225 38.8297 146.029 39.0558 145.79 39.224C145.546 39.3922 145.281 39.5078 144.978 39.5762C144.676 39.6445 144.379 39.6813 144.082 39.6813H143.121Z" fill="#212529"/>
<path d="M64.4059 30.1355H65.5626V23.7015H64.4059V30.1355ZM71.9718 24.2325C71.7225 24.0012 71.4254 23.8277 71.0858 23.7121C70.7462 23.5964 70.412 23.5386 70.083 23.5386C69.7912 23.5386 69.4994 23.5754 69.2182 23.649C68.9317 23.7278 68.6823 23.8382 68.4542 23.9959C68.2313 24.1484 68.0509 24.3481 67.913 24.5846C67.775 24.8212 67.7061 25.105 67.7061 25.4309C67.7061 25.7358 67.7538 25.9881 67.8546 26.1879C67.9501 26.3929 68.0775 26.5611 68.2366 26.6978C68.3958 26.8397 68.5709 26.9501 68.7619 27.0342C68.9582 27.1183 69.1545 27.1919 69.3508 27.2549C69.5524 27.3233 69.7435 27.3864 69.9292 27.4442C70.1149 27.502 70.274 27.5756 70.4067 27.6597C70.5393 27.7438 70.6454 27.8384 70.725 27.9488C70.8046 28.0592 70.8417 28.2011 70.8417 28.3693C70.8417 28.5375 70.8099 28.69 70.7356 28.8109C70.6666 28.9265 70.5764 29.0264 70.4597 29.1052C70.3483 29.1841 70.221 29.2419 70.0777 29.2734C69.9345 29.305 69.7965 29.3207 69.6639 29.3207C69.4092 29.3207 69.1492 29.2577 68.8786 29.1315C68.6133 29.0054 68.4011 28.8319 68.2419 28.6111L67.4142 29.3733C67.6689 29.6782 68.0032 29.9042 68.4064 30.0567C68.8096 30.2091 69.2235 30.2879 69.648 30.2879C69.9663 30.2879 70.2687 30.2459 70.5552 30.1618C70.8417 30.0777 71.0911 29.9515 71.3086 29.7833C71.5209 29.6151 71.6906 29.3996 71.8233 29.142C71.9506 28.8845 72.0143 28.5848 72.0143 28.2379C72.0143 27.9225 71.9559 27.6597 71.8339 27.4442C71.7172 27.2339 71.5633 27.0552 71.3776 26.9185C71.1919 26.7766 70.985 26.6662 70.7621 26.5821C70.5393 26.498 70.3218 26.4244 70.1148 26.3561C69.9291 26.3035 69.7647 26.2457 69.6108 26.1931C69.4569 26.1406 69.3243 26.0775 69.2182 26.0039C69.1121 25.9303 69.0272 25.8462 68.9688 25.7411C68.9052 25.6412 68.8786 25.515 68.8786 25.3731C68.8786 25.2154 68.9158 25.0788 68.9847 24.9684C69.0537 24.858 69.1439 24.7634 69.2553 24.695C69.3667 24.6267 69.4888 24.5741 69.6214 24.5373C69.7594 24.5058 69.892 24.49 70.0247 24.49C70.2528 24.49 70.4756 24.5426 70.6985 24.6477C70.9213 24.7528 71.0964 24.8843 71.2131 25.042L71.9665 24.2272L71.9718 24.2325ZM74.0888 30.1355H75.2455V23.7015H74.0888V30.1355ZM76.9115 30.1355H78.3069L79.8296 27.6124L81.416 30.1355H82.8751L80.5459 26.7293L82.5249 23.7015H81.1932L79.872 25.8988L78.535 23.7015H77.1396L79.1558 26.6978L76.9115 30.1302V30.1355ZM84.5411 30.1355H89.0085V29.1157H85.6977V27.297H88.6742V26.3351H85.6977V24.7003H88.844V23.7015H84.5411V30.1355ZM91.0512 30.1355H92.2078V26.908H92.2343L95.0835 30.1355H96.707L93.4705 26.6767L96.5054 23.7068H94.9455L92.2343 26.4875H92.2078V23.7068H91.0512V30.1408V30.1355ZM97.9804 28.28C98.1555 28.6952 98.3942 29.0527 98.7073 29.3523C99.015 29.6519 99.3811 29.8832 99.8056 30.0514C100.23 30.2196 100.692 30.2985 101.196 30.2985C101.7 30.2985 102.172 30.2143 102.596 30.0514C103.021 29.8832 103.392 29.6519 103.705 29.3523C104.018 29.0527 104.262 28.6952 104.432 28.28C104.607 27.8647 104.692 27.4074 104.692 26.9028C104.692 26.3981 104.607 25.925 104.432 25.5098C104.257 25.0945 104.013 24.7423 103.705 24.4532C103.392 24.1641 103.021 23.9381 102.596 23.7804C102.167 23.6227 101.7 23.5439 101.196 23.5439C100.692 23.5439 100.23 23.6227 99.8056 23.7804C99.3811 23.9381 99.015 24.1589 98.7073 24.4532C98.3995 24.7423 98.1555 25.0998 97.9804 25.5098C97.8053 25.925 97.7151 26.3876 97.7151 26.9028C97.7151 27.4179 97.8053 27.8647 97.9804 28.28ZM99.137 25.9776C99.2432 25.6938 99.397 25.4467 99.588 25.2364C99.7843 25.0262 100.018 24.858 100.288 24.7371C100.559 24.6162 100.861 24.5584 101.201 24.5584C101.541 24.5584 101.843 24.6162 102.119 24.7371C102.395 24.858 102.628 25.0262 102.825 25.2364C103.021 25.4467 103.169 25.699 103.275 25.9776C103.382 26.2615 103.435 26.5716 103.435 26.908C103.435 27.2444 103.382 27.5703 103.275 27.8542C103.169 28.1433 103.016 28.3903 102.819 28.6059C102.618 28.8161 102.384 28.9843 102.108 29.1C101.832 29.2156 101.53 29.2787 101.201 29.2787C100.872 29.2787 100.57 29.2209 100.299 29.1C100.028 28.9843 99.795 28.8161 99.5933 28.6059C99.397 28.3903 99.2432 28.1433 99.137 27.8542C99.0309 27.5651 98.9779 27.2497 98.9779 26.908C98.9779 26.5663 99.0309 26.2667 99.137 25.9776ZM114.004 24.2325C113.754 24.0012 113.457 23.8277 113.118 23.7121C112.778 23.5964 112.444 23.5386 112.115 23.5386C111.823 23.5386 111.531 23.5754 111.25 23.649C110.963 23.7278 110.714 23.8382 110.491 23.9959C110.268 24.1484 110.088 24.3481 109.95 24.5846C109.812 24.8212 109.743 25.105 109.743 25.4309C109.743 25.7358 109.791 25.9881 109.892 26.1879C109.987 26.3929 110.115 26.5611 110.274 26.6978C110.428 26.8397 110.608 26.9501 110.799 27.0342C110.995 27.1183 111.192 27.1919 111.388 27.2549C111.59 27.3233 111.781 27.3864 111.966 27.4442C112.147 27.502 112.311 27.5756 112.444 27.6597C112.576 27.7438 112.682 27.8384 112.762 27.9488C112.842 28.0592 112.879 28.2011 112.879 28.3693C112.879 28.5375 112.842 28.69 112.773 28.8109C112.704 28.9265 112.614 29.0264 112.497 29.1052C112.385 29.1841 112.258 29.2419 112.115 29.2734C111.972 29.305 111.834 29.3207 111.701 29.3207C111.446 29.3207 111.186 29.2577 110.916 29.1315C110.65 29.0054 110.438 28.8319 110.279 28.6111L109.457 29.3733C109.711 29.6782 110.046 29.9042 110.443 30.0567C110.847 30.2091 111.261 30.2879 111.685 30.2879C112.003 30.2879 112.306 30.2459 112.592 30.1618C112.879 30.0777 113.128 29.9515 113.346 29.7833C113.558 29.6151 113.733 29.3996 113.86 29.142C113.988 28.8845 114.051 28.5848 114.051 28.2379C114.051 27.9225 113.993 27.6597 113.871 27.4442C113.754 27.2339 113.6 27.0552 113.409 26.9185C113.224 26.7766 113.017 26.6662 112.794 26.5821C112.571 26.498 112.359 26.4244 112.147 26.3561C111.961 26.3035 111.796 26.2457 111.643 26.1931C111.489 26.1406 111.361 26.0775 111.25 26.0039C111.144 25.9303 111.059 25.8462 110.995 25.7411C110.937 25.6412 110.905 25.515 110.905 25.3731C110.905 25.2154 110.942 25.0788 111.011 24.9684C111.08 24.858 111.17 24.7634 111.282 24.695C111.393 24.6267 111.515 24.5741 111.648 24.5373C111.781 24.5058 111.918 24.49 112.051 24.49C112.279 24.49 112.502 24.5426 112.725 24.6477C112.948 24.7528 113.123 24.8843 113.245 25.042L113.998 24.2272L114.004 24.2325ZM115.335 30.1355H116.625L117.214 28.6637H120.026L120.63 30.1355H121.952L119.155 23.7015H118.158L115.335 30.1355ZM117.611 27.6807L118.63 25.063L119.628 27.6807H117.611ZM127.576 24.2272C127.326 23.9959 127.029 23.8224 126.69 23.7068C126.35 23.5912 126.016 23.5333 125.687 23.5333C125.395 23.5333 125.103 23.5701 124.822 23.6437C124.541 23.7226 124.286 23.833 124.063 23.9907C123.84 24.1431 123.66 24.3428 123.522 24.5794C123.384 24.8159 123.315 25.0998 123.315 25.4257C123.315 25.7306 123.363 25.9829 123.464 26.1826C123.559 26.3876 123.687 26.5558 123.846 26.6925C124 26.8344 124.18 26.9448 124.371 27.0289C124.567 27.113 124.764 27.1866 124.96 27.2497C125.162 27.318 125.353 27.3811 125.538 27.4389C125.719 27.4967 125.883 27.5703 126.016 27.6544C126.154 27.7385 126.26 27.8332 126.334 27.9435C126.414 28.0539 126.451 28.1959 126.451 28.3641C126.451 28.5323 126.414 28.6847 126.345 28.8056C126.276 28.9213 126.18 29.0211 126.069 29.1C125.957 29.1788 125.83 29.2366 125.687 29.2682C125.544 29.2997 125.406 29.3155 125.273 29.3155C125.018 29.3155 124.758 29.2524 124.488 29.1263C124.222 29.0001 124.01 28.8266 123.851 28.6059L123.029 29.3681C123.283 29.6729 123.612 29.899 124.021 30.0514C124.424 30.2038 124.838 30.2827 125.257 30.2827C125.575 30.2827 125.878 30.2406 126.164 30.1565C126.451 30.0724 126.705 29.9463 126.918 29.7781C127.13 29.6099 127.305 29.3943 127.432 29.1368C127.56 28.8792 127.623 28.5796 127.623 28.2326C127.623 27.9173 127.565 27.6544 127.443 27.4389C127.326 27.2287 127.172 27.0499 126.987 26.9133C126.801 26.7713 126.594 26.661 126.371 26.5769C126.148 26.4927 125.936 26.4192 125.724 26.3508C125.544 26.2983 125.374 26.2404 125.22 26.1879C125.066 26.1353 124.939 26.0722 124.827 25.9986C124.721 25.925 124.636 25.8409 124.578 25.7358C124.52 25.6359 124.488 25.5098 124.488 25.3679C124.488 25.2102 124.525 25.0735 124.594 24.9631C124.663 24.8527 124.753 24.7581 124.864 24.6898C124.976 24.6214 125.098 24.5689 125.23 24.5321C125.363 24.5005 125.501 24.4848 125.634 24.4848C125.862 24.4848 126.085 24.5373 126.308 24.6425C126.53 24.7476 126.705 24.879 126.827 25.0367L127.581 24.2219L127.576 24.2272ZM129.693 30.1302H134.155V29.1105H130.844V27.2917H133.826V26.3298H130.844V24.695H133.99V23.6963H129.687V30.1302H129.693ZM136.203 30.1302H137.359V26.9028H137.386L140.235 30.1302H141.859L138.622 26.6715L141.657 23.7015H140.097L137.386 26.4822H137.359V23.7015H136.203V30.1355V30.1302ZM142.538 30.1302H143.832L144.421 28.6584H147.233L147.838 30.1302H149.159L146.363 23.6963H145.366L142.543 30.1302H142.538ZM144.814 27.6755L145.833 25.0577L146.83 27.6755H144.814ZM150.719 30.1302H151.876V27.4705H152.767C153.112 27.4705 153.436 27.4389 153.738 27.3706C154.046 27.3022 154.311 27.1971 154.539 27.0499C154.767 26.9028 154.953 26.7083 155.086 26.4665C155.218 26.2247 155.287 25.925 155.287 25.5676C155.287 25.2364 155.229 24.9526 155.112 24.7161C154.995 24.4795 154.831 24.285 154.619 24.1326C154.401 23.9801 154.147 23.8698 153.849 23.8067C153.552 23.7383 153.213 23.7068 152.841 23.7068H150.724V30.1408L150.719 30.1302ZM151.876 26.5033V24.6582H152.719C152.894 24.6582 153.07 24.6687 153.239 24.6898C153.409 24.7108 153.558 24.7528 153.69 24.8212C153.818 24.8895 153.924 24.9789 154.003 25.0998C154.083 25.2154 154.12 25.3731 154.12 25.5571C154.12 25.7411 154.078 25.9093 154.003 26.0302C153.924 26.1511 153.818 26.2457 153.685 26.314C153.552 26.3876 153.398 26.4297 153.229 26.4612C153.059 26.4875 152.878 26.5033 152.687 26.5033H151.881H151.876ZM155.892 30.1302H157.187L157.776 28.6584H160.588L161.193 30.1302H162.514L159.718 23.6963H158.72L155.897 30.1302H155.892ZM158.168 27.6755L159.187 25.0577L160.184 27.6755H158.168Z" fill="#212529"/>
<path d="M69.9716 13.9665C69.8443 13.7983 69.6851 13.6511 69.5047 13.5302C69.319 13.4093 69.128 13.3095 68.9158 13.2253C68.7088 13.1412 68.4913 13.0834 68.2685 13.0414C68.0403 13.0046 67.8228 12.9836 67.6159 12.9836C67.1171 12.9836 66.6502 13.0624 66.2205 13.2201C65.7907 13.3778 65.4193 13.6038 65.1063 13.8929C64.7932 14.182 64.5439 14.5342 64.3635 14.9495C64.1831 15.3647 64.0929 15.8273 64.0929 16.3425C64.0929 16.8576 64.1778 17.3044 64.3476 17.7197C64.5173 18.1349 64.7561 18.4924 65.0638 18.792C65.3716 19.0916 65.7376 19.3229 66.1621 19.4911C66.5866 19.6593 67.0535 19.7381 67.5575 19.7381C68.1146 19.7381 68.6027 19.6383 69.0166 19.4438C69.4304 19.244 69.7806 18.9707 70.0724 18.6133L69.1492 17.9667C68.9847 18.1927 68.7672 18.3715 68.4966 18.5081C68.226 18.6448 67.9183 18.7131 67.5681 18.7131C67.2179 18.7131 66.9314 18.6553 66.6608 18.5397C66.3902 18.424 66.1621 18.2611 65.9711 18.0561C65.7801 17.8458 65.6315 17.5988 65.5254 17.3096C65.4193 17.0153 65.3716 16.6946 65.3716 16.3425C65.3716 16.0113 65.4246 15.7012 65.5307 15.4173C65.6368 15.1335 65.7907 14.8864 65.9923 14.6709C66.1939 14.4606 66.4274 14.2924 66.7033 14.1715C66.9792 14.0506 67.2816 13.9928 67.6212 13.9928C67.8865 13.9928 68.1517 14.0454 68.4276 14.1505C68.7035 14.2556 68.9264 14.4238 69.0962 14.6551L69.9769 13.9665H69.9716ZM71.7066 19.5805H72.8632V13.1465H71.7066V19.5805ZM76.5188 19.5805H77.6755V14.1505H79.6651V13.1518H74.5292V14.1505H76.5188V19.5805ZM82.7902 19.5805H83.9468V16.7893L86.3874 13.1465H85.0504L83.4003 15.8536L81.7662 13.1465H80.3549L82.7955 16.7893V19.5805H82.7902ZM90.7806 17.7249C90.9557 18.1402 91.1944 18.4976 91.5074 18.7972C91.8152 19.0969 92.1813 19.3281 92.6057 19.4964C93.0302 19.6646 93.4918 19.7434 93.9958 19.7434C94.4999 19.7434 94.9721 19.6593 95.4018 19.4964C95.8263 19.3281 96.1977 19.0969 96.5107 18.7972C96.8184 18.4976 97.0625 18.1402 97.2376 17.7249C97.4127 17.3096 97.4976 16.8523 97.4976 16.3477C97.4976 15.8431 97.4074 15.37 97.2376 14.9547C97.0625 14.5395 96.8184 14.1873 96.5107 13.8982C96.1977 13.6091 95.8263 13.383 95.4018 13.2253C94.9721 13.0677 94.5052 12.9888 93.9958 12.9888C93.4865 12.9888 93.0302 13.0677 92.6057 13.2253C92.1813 13.383 91.8152 13.6091 91.5074 13.8982C91.1997 14.1873 90.9557 14.5395 90.7806 14.9547C90.6055 15.37 90.5206 15.8326 90.5206 16.3477C90.5206 16.8628 90.6108 17.3096 90.7806 17.7249ZM91.9372 15.4226C92.0433 15.1387 92.1919 14.8917 92.3935 14.6761C92.5898 14.4659 92.8233 14.2977 93.0938 14.1768C93.3644 14.0559 93.6669 13.9981 94.0064 13.9981C94.346 13.9981 94.6484 14.0559 94.9243 14.1768C95.2002 14.2977 95.4337 14.4659 95.63 14.6761C95.8263 14.8864 95.9748 15.1387 96.081 15.4226C96.1871 15.7064 96.2401 16.0165 96.2401 16.3477C96.2401 16.6789 96.1871 17.01 96.081 17.2991C95.9748 17.5882 95.821 17.8353 95.6194 18.0508C95.4177 18.2611 95.1843 18.4293 94.9084 18.5449C94.6325 18.6606 94.3301 18.7236 94.0011 18.7236C93.6722 18.7236 93.3697 18.6658 93.0992 18.5449C92.8286 18.4293 92.5951 18.2611 92.3935 18.0508C92.1919 17.8406 92.0433 17.5882 91.9372 17.2991C91.8311 17.01 91.778 16.6946 91.778 16.3477C91.778 16.0008 91.8311 15.7064 91.9372 15.4226ZM99.535 19.5805H100.692V16.8734H103.551V15.9114H100.692V14.1505H103.726V13.1518H99.535V19.5857V19.5805ZM114.481 13.9665C114.354 13.7983 114.195 13.6511 114.014 13.5302C113.829 13.4093 113.632 13.3095 113.425 13.2253C113.218 13.1412 113.001 13.0834 112.778 13.0414C112.55 13.0046 112.332 12.9836 112.125 12.9836C111.627 12.9836 111.16 13.0624 110.73 13.2201C110.306 13.3778 109.929 13.6038 109.616 13.8929C109.303 14.182 109.053 14.5342 108.873 14.9495C108.693 15.3647 108.602 15.8273 108.602 16.3425C108.602 16.8576 108.687 17.3044 108.857 17.7197C109.027 18.1349 109.266 18.4924 109.573 18.792C109.881 19.0916 110.242 19.3229 110.672 19.4911C111.096 19.6593 111.563 19.7381 112.067 19.7381C112.624 19.7381 113.112 19.6383 113.526 19.4438C113.94 19.244 114.29 18.9707 114.582 18.6133L113.653 17.9667C113.489 18.1927 113.271 18.3715 113.001 18.5081C112.73 18.6448 112.423 18.7131 112.072 18.7131C111.722 18.7131 111.436 18.6553 111.165 18.5397C110.894 18.424 110.666 18.2611 110.475 18.0561C110.284 17.8458 110.13 17.5988 110.03 17.3096C109.924 17.0153 109.876 16.6946 109.876 16.3425C109.876 16.0113 109.929 15.7012 110.035 15.4173C110.141 15.1335 110.295 14.8864 110.497 14.6709C110.693 14.4606 110.932 14.2924 111.208 14.1715C111.483 14.0506 111.786 13.9928 112.125 13.9928C112.391 13.9928 112.656 14.0454 112.932 14.1505C113.208 14.2556 113.431 14.4238 113.6 14.6551L114.481 13.9665ZM115.426 19.5805H116.72L117.309 18.1086H120.121L120.726 19.5805H122.047L119.251 13.1465H118.248L115.426 19.5805ZM117.702 17.1257L118.72 14.5079L119.718 17.1257H117.702ZM123.607 19.5805H124.764V16.9207H125.655C126 16.9207 126.323 16.8891 126.626 16.8208C126.928 16.7525 127.199 16.6473 127.427 16.4949C127.655 16.3477 127.841 16.1532 127.974 15.9114C128.106 15.6696 128.175 15.37 128.175 15.0126C128.175 14.6814 128.117 14.3975 128 14.1557C127.883 13.9192 127.719 13.7247 127.507 13.5723C127.289 13.4198 127.034 13.3147 126.737 13.2464C126.44 13.178 126.101 13.1465 125.729 13.1465H123.612V19.5805H123.607ZM124.764 15.9587V14.1137H125.607C125.782 14.1137 125.957 14.1242 126.127 14.1452C126.297 14.1663 126.445 14.2083 126.578 14.2766C126.711 14.345 126.812 14.4343 126.891 14.5552C126.971 14.6709 127.008 14.8233 127.008 15.0126C127.008 15.2018 126.971 15.3647 126.891 15.4856C126.812 15.6065 126.705 15.7012 126.573 15.7695C126.44 15.8431 126.286 15.8904 126.117 15.9167C125.947 15.943 125.766 15.9587 125.575 15.9587H124.769H124.764ZM130.117 19.5805H134.579V18.566H131.268V16.7472H134.245V15.7853H131.268V14.1505H134.415V13.1518H130.117V19.5857V19.5805ZM140.925 19.5805H142.081V14.1505H144.071V13.1518H138.935V14.1505H140.925V19.5805ZM145.413 17.7249C145.588 18.1402 145.827 18.4976 146.14 18.7972C146.448 19.0969 146.814 19.3281 147.239 19.4964C147.663 19.6646 148.125 19.7434 148.629 19.7434C149.133 19.7434 149.605 19.6593 150.029 19.4964C150.459 19.3281 150.825 19.0969 151.138 18.7972C151.451 18.4976 151.695 18.1402 151.87 17.7249C152.045 17.3096 152.13 16.8523 152.13 16.3477C152.13 15.8431 152.045 15.37 151.87 14.9547C151.695 14.5395 151.451 14.1873 151.138 13.8982C150.825 13.6091 150.459 13.383 150.029 13.2253C149.6 13.0677 149.133 12.9888 148.629 12.9888C148.125 12.9888 147.663 13.0677 147.239 13.2253C146.814 13.383 146.448 13.6091 146.14 13.8982C145.833 14.1873 145.588 14.5395 145.413 14.9547C145.238 15.37 145.153 15.8326 145.153 16.3477C145.153 16.8628 145.238 17.3096 145.413 17.7249ZM146.57 15.4226C146.676 15.1387 146.825 14.8917 147.026 14.6761C147.223 14.4659 147.456 14.2977 147.727 14.1768C147.997 14.0559 148.305 13.9981 148.639 13.9981C148.973 13.9981 149.281 14.0559 149.557 14.1768C149.833 14.2977 150.066 14.4659 150.263 14.6761C150.459 14.8864 150.613 15.1387 150.714 15.4226C150.82 15.7064 150.873 16.0165 150.873 16.3477C150.873 16.6789 150.82 17.01 150.714 17.2991C150.608 17.5882 150.454 17.8353 150.257 18.0508C150.056 18.2611 149.822 18.4293 149.547 18.5449C149.271 18.6606 148.968 18.7236 148.639 18.7236C148.31 18.7236 148.008 18.6658 147.737 18.5449C147.467 18.4293 147.228 18.2611 147.032 18.0508C146.83 17.8406 146.681 17.5882 146.57 17.2991C146.464 17.01 146.411 16.6946 146.411 16.3477C146.411 16.0008 146.464 15.7064 146.57 15.4226ZM155.404 19.5805H156.524L158.046 14.7602H158.067L159.59 19.5805H160.71L162.609 13.1465H161.384L160.1 17.8721H160.078L158.678 13.1465H157.484L156.051 17.8721H156.03L154.773 13.1465H153.505L155.404 19.5805ZM164.286 19.5805H165.442V14.6131H165.464L168.546 19.5805H170.011V13.1465H168.854V17.9615H168.838L165.819 13.1465H164.286V19.5805Z" fill="#212529"/>
<path d="M52.362 23.7646L55.4764 18.424L49.741 8.5786H43.5121V2.11311L37.8562 5.34586L34.7417 0H23.2655L20.1511 5.34586L14.5058 2.11311L14.5005 8.5786H8.27159L2.53613 18.424L5.65057 23.7646L0 26.9974L5.65057 30.2301L2.53613 35.576L8.27159 45.4214H14.5005L14.5058 51.8869L20.1511 48.6541L23.2708 54H34.747L37.8615 48.6541L43.5068 51.8869L43.5121 45.4214H49.741L55.4764 35.576L52.362 30.2301L58.0125 26.9974L52.362 23.7646Z" fill="#B7D346"/>
<path d="M49.7834 26.9974C49.7834 38.3672 40.4825 47.5818 29.0063 47.5818C17.53 47.5818 8.22914 38.3672 8.22914 26.9974C8.22914 15.6276 17.53 6.41293 29.0063 6.41293C40.4825 6.41293 49.7834 15.6276 49.7834 26.9974Z" fill="black"/>
<path d="M48.5259 22.9288L44.6634 20.7159L46.9979 16.7051H42.3289L42.3236 12.2844L35.2086 8.2159L31.3408 10.4236L29.0063 6.41818L26.6664 10.4236L22.8039 8.2159L15.6836 12.2844V16.7051H11.0146L13.3491 20.7159L9.48659 22.9288V31.0712L13.3491 33.2789L11.0146 37.2896H15.689V41.7103L22.8039 45.7841L26.6664 43.5711L29.0063 47.5818L31.3408 43.5711L35.2086 45.7841L42.3289 41.7103V37.2896H46.9979L44.6634 33.2789L48.5259 31.0712V22.9288Z" fill="#00ABCE"/>
<path d="M36.4449 39.7654C29.3246 43.8392 20.2253 41.4212 16.1134 34.367C12.0068 27.318 14.4421 18.2979 21.5624 14.2241C28.6773 10.1503 37.7819 12.5683 41.8938 19.6172C46.0057 26.6715 43.5651 35.6864 36.4449 39.7601" fill="white"/>
<path d="M40.9919 25.3416L42.5889 22.5977L39.6442 17.5462H36.4502V14.2293L33.5533 15.8851L31.9563 13.1412H26.0669L24.4699 15.8851L21.573 14.2293V17.5462H18.3737L15.429 22.5977L17.026 25.3416L14.1291 26.9974L17.026 28.6532L15.429 31.3971L18.3737 36.4485H21.5677V39.7654L24.4699 38.1096L26.0669 40.8535H31.9563L33.5533 38.1096L36.4502 39.7707V36.4538H39.6495L42.5942 31.4023L40.9972 28.6584L43.8994 27.0026L40.9972 25.3468L40.9919 25.3416ZM39.6708 26.9974C39.6708 32.8321 34.8956 37.5629 29.0063 37.5629C23.117 37.5629 18.3471 32.8321 18.3471 26.9974C18.3471 21.1627 23.1223 16.4318 29.0063 16.4318C34.8903 16.4318 39.6708 21.1627 39.6708 26.9974Z" fill="#D93389"/>
<path d="M39.0234 24.9105L37.0391 23.7804L38.2382 21.7198H35.84V19.449L32.1844 17.3622L30.2001 18.4976L29.001 16.4423L27.8019 18.4976L25.8176 17.3622L22.1672 19.4543V21.7198H19.7691L20.9681 23.7804L18.9838 24.9158V29.0947L20.9681 30.2301L19.7691 32.2907H22.1672V34.5615L25.8229 36.6536L27.8019 35.5182L29.001 37.5734L30.2001 35.5182L32.1844 36.6536L35.84 34.5615V32.2907H38.2382L37.0391 30.2301L39.0234 29.0947V24.9158V24.9105ZM32.8264 33.5522C29.1708 35.6391 24.5017 34.3985 22.3954 30.782C20.289 27.1656 21.5359 22.5346 25.1915 20.4478C28.8471 18.3609 33.5161 19.5962 35.6225 23.2179C37.7289 26.8397 36.4767 31.4654 32.8264 33.5522Z" fill="#F8A438"/>
</g>
<defs>
<clipPath id="clip0_184_16496">
<rect width="170" height="54" fill="white"/>
</clipPath>
</defs>
</svg>
